<svg id="Component_1_1" data-name="Component 1 – 1" xmlns="http://www.w3.org/2000/svg" xmlns:xlink="http://www.w3.org/1999/xlink" width="174.899" height="29.706" viewBox="0 0 174.899 29.706">
  <defs>
    <clipPath id="clip-path">
      <rect id="Rectangle_154" data-name="Rectangle 154" width="174.899" height="29.706" fill="none"/>
    </clipPath>
  </defs>
  <rect id="Rectangle_152" data-name="Rectangle 152" width="21.758" height="3.497" transform="translate(0 12.024)" fill="#ffd400"/>
  <rect id="Rectangle_153" data-name="Rectangle 153" width="21.758" height="7.015" transform="translate(0 16.559)" fill="#3a9e52"/>
  <g id="Group_449" data-name="Group 449">
    <g id="Group_448" data-name="Group 448" clip-path="url(#clip-path)">
      <path id="Path_9513" data-name="Path 9513" d="M5.755,15.861H1.191a1.166,1.166,0,0,1,0-2.331H5.755a1.166,1.166,0,1,1,0,2.331" transform="translate(-0.009 -4.871)" fill="#d9000d"/>
      <path id="Path_9514" data-name="Path 9514" d="M17.359,15.862H12.8a1.166,1.166,0,1,1,0-2.331h4.563a1.166,1.166,0,1,1,0,2.331" transform="translate(-4.187 -4.872)" fill="#d9000d"/>
      <path id="Path_9515" data-name="Path 9515" d="M28.971,15.862H24.407a1.166,1.166,0,0,1,0-2.331h4.564a1.166,1.166,0,1,1,0,2.331" transform="translate(-8.368 -4.872)" fill="#d9000d"/>
      <path id="Path_9516" data-name="Path 9516" d="M19.946,6.814H1.812V4.566H19.946Zm1.812-4.06H0V8.626H21.758Z" transform="translate(0 -0.991)" fill="#005aa7"/>
      <path id="Path_9517" data-name="Path 9517" d="M40.582,9.15A6.278,6.278,0,0,1,41.1,6.611,6.642,6.642,0,0,1,44.58,3.129a6.288,6.288,0,0,1,2.539-.516h10V6.976h-10A2.155,2.155,0,0,0,44.945,9.15a2.218,2.218,0,0,0,.167.859,2.134,2.134,0,0,0,1.156,1.163,2.164,2.164,0,0,0,.851.167h4.364a6.417,6.417,0,0,1,2.546.509,6.505,6.505,0,0,1,3.481,3.481,6.6,6.6,0,0,1,0,5.086,6.569,6.569,0,0,1-1.4,2.075A6.641,6.641,0,0,1,54.029,23.9a6.335,6.335,0,0,1-2.546.517H41.8V20.051h9.685a2.174,2.174,0,1,0,0-4.348H47.119a6.278,6.278,0,0,1-2.539-.517A6.617,6.617,0,0,1,41.1,11.7a6.33,6.33,0,0,1-.517-2.546" transform="translate(-14.612 -0.941)" fill="#464545"/>
      <path id="Path_9518" data-name="Path 9518" d="M75.758,23.875h-4.15V1.116h4.15V8.307a4.856,4.856,0,0,1,1.535-.8,5.625,5.625,0,0,1,1.612-.236,7.062,7.062,0,0,1,2.827.57,7.192,7.192,0,0,1,2.3,1.566,7.487,7.487,0,0,1,1.551,2.326,7.122,7.122,0,0,1,.57,2.836v9.3H81.976v-9.3h.031a3.054,3.054,0,0,0-.243-1.209A3.13,3.13,0,0,0,80.106,11.7a3,3,0,0,0-1.2-.243A3.113,3.113,0,0,0,76,13.362a3.054,3.054,0,0,0-.243,1.209Z" transform="translate(-25.783 -0.402)" fill="#464545"/>
      <path id="Path_9519" data-name="Path 9519" d="M103.462,2.766a2.657,2.657,0,0,1-.22,1.08,2.774,2.774,0,0,1-.6.874,2.915,2.915,0,0,1-.889.593,2.8,2.8,0,0,1-2.175,0A2.79,2.79,0,0,1,98.1,3.846a2.646,2.646,0,0,1-.22-1.08A2.664,2.664,0,0,1,98.1,1.7,2.769,2.769,0,0,1,99.578.22a2.8,2.8,0,0,1,2.175,0,2.915,2.915,0,0,1,.889.593,2.75,2.75,0,0,1,.6.882,2.675,2.675,0,0,1,.22,1.071m-.714,20.707H98.567V7.191h4.181Z" transform="translate(-35.243 0)" fill="#464545"/>
      <path id="Path_9520" data-name="Path 9520" d="M114.607,33.388h-4.181V10.9h1l1.657,1.961a10.994,10.994,0,0,1,1.232-1,9.353,9.353,0,0,1,1.391-.813,8.25,8.25,0,0,1,1.5-.54,6.346,6.346,0,0,1,1.566-.2,8.482,8.482,0,0,1,3.231.616,7.983,7.983,0,0,1,2.645,1.741,8.135,8.135,0,0,1,1.787,2.713,9.17,9.17,0,0,1,.653,3.52,9.492,9.492,0,0,1-.653,3.611,8.02,8.02,0,0,1-1.787,2.722A7.758,7.758,0,0,1,122,26.942a8.771,8.771,0,0,1-3.231.593,4.953,4.953,0,0,1-1.087-.122,7.334,7.334,0,0,1-1.064-.327q-.525-.205-1.034-.464t-.98-.532ZM122.923,18.9a4.971,4.971,0,0,0-.327-1.855,4.125,4.125,0,0,0-.89-1.391,3.844,3.844,0,0,0-1.322-.874,4.3,4.3,0,0,0-1.612-.3,4.236,4.236,0,0,0-1.6.3,3.858,3.858,0,0,0-1.315.874,4.126,4.126,0,0,0-.89,1.391,4.984,4.984,0,0,0-.327,1.855,4.854,4.854,0,0,0,.327,1.809,4.219,4.219,0,0,0,.89,1.4,3.983,3.983,0,0,0,1.315.9,4.058,4.058,0,0,0,1.6.319A4.119,4.119,0,0,0,120.384,23a3.967,3.967,0,0,0,1.322-.9,4.218,4.218,0,0,0,.89-1.4,4.841,4.841,0,0,0,.327-1.809" transform="translate(-39.759 -3.712)" fill="#464545"/>
      <path id="Path_9521" data-name="Path 9521" d="M138.744,9.15a6.278,6.278,0,0,1,.517-2.539,6.642,6.642,0,0,1,3.481-3.482,6.288,6.288,0,0,1,2.539-.516h10V6.976h-10a2.155,2.155,0,0,0-2.174,2.174,2.218,2.218,0,0,0,.167.859,2.134,2.134,0,0,0,1.156,1.163,2.164,2.164,0,0,0,.851.167h4.364a6.417,6.417,0,0,1,2.546.509,6.505,6.505,0,0,1,3.481,3.481,6.6,6.6,0,0,1,0,5.086,6.569,6.569,0,0,1-1.4,2.075,6.641,6.641,0,0,1-2.082,1.407,6.335,6.335,0,0,1-2.546.517H139.96V20.051h9.685a2.174,2.174,0,1,0,0-4.348h-4.364a6.278,6.278,0,0,1-2.539-.517,6.617,6.617,0,0,1-3.481-3.489,6.33,6.33,0,0,1-.517-2.546" transform="translate(-49.955 -0.941)" fill="#464545"/>
      <path id="Path_9522" data-name="Path 9522" d="M185.048,27.169h-1l-1.611-2.235a13.3,13.3,0,0,1-1.254,1,9.217,9.217,0,0,1-1.391.806,8.5,8.5,0,0,1-1.5.54,6.255,6.255,0,0,1-1.558.2,8.987,8.987,0,0,1-3.23-.577,7.679,7.679,0,0,1-2.646-1.68,7.869,7.869,0,0,1-1.786-2.7,9.52,9.52,0,0,1-.654-3.634,9.082,9.082,0,0,1,.654-3.489,8.3,8.3,0,0,1,1.786-2.729,8.06,8.06,0,0,1,2.646-1.771,8.309,8.309,0,0,1,3.23-.631,6.316,6.316,0,0,1,1.566.2,8.122,8.122,0,0,1,1.505.547,9.363,9.363,0,0,1,1.391.821,11.464,11.464,0,0,1,1.239,1.019l1.611-1.931h1Zm-4.181-8.285a4.31,4.31,0,0,0-.327-1.65,4.746,4.746,0,0,0-.89-1.414,4.426,4.426,0,0,0-1.315-.988,3.565,3.565,0,0,0-1.6-.372,4.435,4.435,0,0,0-1.6.289,3.66,3.66,0,0,0-1.307.851,3.99,3.99,0,0,0-.874,1.391,5.77,5.77,0,0,0,0,3.786,3.975,3.975,0,0,0,.874,1.391,3.644,3.644,0,0,0,1.307.852,4.435,4.435,0,0,0,1.6.289,3.565,3.565,0,0,0,1.6-.372,4.426,4.426,0,0,0,1.315-.988,4.754,4.754,0,0,0,.89-1.414,4.31,4.31,0,0,0,.327-1.65" transform="translate(-60.638 -3.695)" fill="#464545"/>
      <path id="Path_9523" data-name="Path 9523" d="M203.079,27.519l-6.2-16.282H201.6l3.557,10.155L208.7,11.237h4.743l-6.2,16.282Z" transform="translate(-70.886 -4.046)" fill="#464545"/>
      <path id="Path_9524" data-name="Path 9524" d="M228.974,27.519l-6.2-16.282H227.5l3.557,10.155L234.6,11.237h4.743l-6.2,16.282Z" transform="translate(-80.209 -4.046)" fill="#464545"/>
      <path id="Path_9525" data-name="Path 9525" d="M254.654,33.722V29.541l2.311.03a3.52,3.52,0,0,0,1.17-.2,4,4,0,0,0,1.042-.548,4.088,4.088,0,0,0,.843-.828,4.519,4.519,0,0,0,.593-1.042q-.684.289-1.391.578a3.731,3.731,0,0,1-1.421.289,7.509,7.509,0,0,1-2.828-.532,6.872,6.872,0,0,1-3.884-3.9,8.325,8.325,0,0,1-.57-3.154v-9h4.135v9a4.173,4.173,0,0,0,.251,1.513,3.133,3.133,0,0,0,.676,1.079,2.7,2.7,0,0,0,1,.646,3.469,3.469,0,0,0,1.224.213,2.581,2.581,0,0,0,1.208-.3,3.375,3.375,0,0,0,1-.783,3.76,3.76,0,0,0,.669-1.1,3.434,3.434,0,0,0,.243-1.27v-9H265.1v14.23a8.2,8.2,0,0,1-.669,3.223,8.376,8.376,0,0,1-1.787,2.63,8.524,8.524,0,0,1-2.638,1.779,8,8,0,0,1-3.223.653Z" transform="translate(-90.2 -4.046)" fill="#464545"/>
    </g>
  </g>
</svg>
