<svg width="241" height="48" viewBox="0 0 241 48" fill="none" xmlns="http://www.w3.org/2000/svg">
<path d="M33.3433 20.1924H4.47754V24.8964H33.3433V20.1924Z" fill="white"/>
<path d="M33.3433 26.3042H4.47754V35.7442H33.3433V26.3042Z" fill="white"/>
<path d="M12.0919 18.8001H6.03814C5.18683 18.8001 4.49316 18.0961 4.49316 17.2321C4.49316 16.3681 5.18683 15.6641 6.03814 15.6641H12.0919C12.9432 15.6641 13.6369 16.3681 13.6369 17.2321C13.6526 18.0961 12.959 18.8001 12.0919 18.8001Z" fill="white"/>
<path d="M21.9454 18.8001H15.8917C15.0403 18.8001 14.3467 18.0961 14.3467 17.2321C14.3467 16.3681 15.0403 15.6641 15.8917 15.6641H21.9454C22.7967 15.6641 23.4904 16.3681 23.4904 17.2321C23.4904 18.0961 22.8125 18.8001 21.9454 18.8001Z" fill="white"/>
<path d="M31.8136 18.8001H25.7598C24.9085 18.8001 24.2148 18.0961 24.2148 17.2321C24.2148 16.3681 24.9085 15.6641 25.7598 15.6641H31.8136C32.6649 15.6641 33.3586 16.3681 33.3586 17.2321C33.3586 18.0961 32.6649 18.8001 31.8136 18.8001Z" fill="white"/>
<path d="M30.9313 8.81616V11.8402H6.87382V8.81616H30.9313ZM33.3433 6.36816H4.47754V14.2722H33.3433V6.36816Z" fill="white"/>
<path d="M38.9238 15.0562C38.9238 13.8402 39.1445 12.7042 39.6017 11.6322C40.0589 10.5602 40.6737 9.63223 41.462 8.83223C42.2502 8.03223 43.1646 7.40823 44.2209 6.94423C45.2771 6.48023 46.3965 6.24023 47.5946 6.24023H60.8687V12.1122H47.6104C47.2005 12.1122 46.8379 12.1922 46.4753 12.3362C46.1284 12.4802 45.8131 12.6882 45.5609 12.9602C45.3087 13.2322 45.088 13.5362 44.9461 13.8882C44.8042 14.2402 44.7254 14.6242 44.7254 15.0402C44.7254 15.4562 44.8042 15.8402 44.9461 16.1922C45.088 16.5602 45.2929 16.8642 45.5609 17.1362C45.8289 17.4082 46.1284 17.6162 46.4753 17.7602C46.8221 17.9042 47.2005 17.9842 47.6104 17.9842H53.3961C54.5943 17.9842 55.7136 18.2082 56.7698 18.6722C57.8261 19.1362 58.7405 19.7602 59.5287 20.5602C60.317 21.3602 60.9318 22.2882 61.389 23.3602C61.8462 24.4322 62.0669 25.5682 62.0669 26.7842C62.0669 28.0002 61.8462 29.1362 61.389 30.2082C60.9318 31.2802 60.317 32.2082 59.5287 33.0082C58.7405 33.8082 57.8261 34.4322 56.7698 34.8962C55.7136 35.3602 54.5943 35.6002 53.3961 35.6002H40.5476V29.7282H53.3961C53.806 29.7282 54.1686 29.6482 54.5312 29.5042C54.878 29.3602 55.1933 29.1522 55.4456 28.8802C55.6978 28.6082 55.9185 28.3042 56.0604 27.9522C56.2023 27.6002 56.2811 27.2162 56.2811 26.8002C56.2811 26.3842 56.2023 26.0162 56.0604 25.6482C55.9185 25.2962 55.7136 24.9762 55.4456 24.7202C55.1776 24.4482 54.878 24.2402 54.5312 24.0962C54.1844 23.9522 53.806 23.8722 53.3961 23.8722H47.6104C46.4122 23.8722 45.2929 23.6482 44.2366 23.1842C43.1804 22.7202 42.266 22.0962 41.4778 21.2962C40.6895 20.4962 40.0747 19.5682 39.6175 18.4962C39.1603 17.4082 38.9238 16.2722 38.9238 15.0562Z" fill="white"/>
<path d="M70.7853 35.6H65.2676V4.95996H70.7853V14.64C71.4475 14.128 72.1254 13.776 72.819 13.568C73.5127 13.36 74.2379 13.248 74.9631 13.248C76.2873 13.248 77.5485 13.504 78.7151 14.016C79.8818 14.528 80.9065 15.232 81.7736 16.128C82.6406 17.024 83.3343 18.064 83.8388 19.264C84.3433 20.464 84.5955 21.728 84.5955 23.088V35.616H79.0462V23.088H79.0935C79.0935 22.512 78.9832 21.968 78.7782 21.456C78.5575 20.944 78.2737 20.496 77.8954 20.112C77.517 19.728 77.0756 19.424 76.5869 19.216C76.0824 18.992 75.5621 18.896 74.9946 18.896C74.4113 18.896 73.8753 19.008 73.355 19.216C72.8506 19.44 72.3934 19.728 72.0308 20.112C71.6524 20.496 71.3529 20.944 71.1479 21.456C70.9272 21.968 70.8326 22.512 70.8326 23.088V35.6H70.7853Z" fill="white"/>
<path d="M94.9847 7.728C94.9847 8.24 94.8902 8.736 94.6852 9.184C94.496 9.632 94.228 10.032 93.8812 10.368C93.5501 10.704 93.156 10.976 92.6988 11.168C92.2416 11.36 91.7687 11.472 91.2642 11.472C90.7597 11.472 90.271 11.376 89.8296 11.168C89.3724 10.976 88.994 10.704 88.663 10.368C88.3319 10.032 88.0639 9.648 87.8747 9.184C87.6856 8.736 87.5752 8.256 87.5752 7.728C87.5752 7.216 87.6698 6.736 87.8747 6.288C88.0639 5.824 88.3319 5.44 88.663 5.104C88.994 4.768 89.3882 4.496 89.8296 4.304C90.2868 4.112 90.7597 4 91.2642 4C91.7687 4 92.2574 4.096 92.6988 4.304C93.156 4.496 93.5501 4.768 93.8812 5.104C94.2123 5.44 94.4803 5.84 94.6852 6.288C94.8902 6.736 94.9847 7.216 94.9847 7.728ZM94.0388 35.6H88.4896V13.68H94.0388V35.6Z" fill="white"/>
<path d="M103.781 43.952H98.2314V13.68H99.5557L101.747 16.32C102.252 15.84 102.788 15.392 103.387 14.976C103.986 14.56 104.601 14.192 105.231 13.888C105.877 13.584 106.54 13.344 107.218 13.168C107.911 12.992 108.589 12.896 109.298 12.896C110.812 12.896 112.247 13.168 113.587 13.728C114.927 14.288 116.093 15.056 117.102 16.064C118.111 17.072 118.899 18.288 119.467 19.712C120.05 21.136 120.334 22.72 120.334 24.448C120.334 26.256 120.05 27.872 119.467 29.312C118.884 30.752 118.095 31.968 117.102 32.976C116.093 33.984 114.927 34.752 113.587 35.28C112.247 35.808 110.812 36.08 109.298 36.08C108.81 36.08 108.337 36.032 107.864 35.92C107.391 35.808 106.918 35.664 106.445 35.472C105.988 35.28 105.531 35.072 105.073 34.848C104.616 34.624 104.191 34.384 103.765 34.128V43.952H103.781ZM114.816 24.448C114.816 23.52 114.674 22.688 114.375 21.952C114.091 21.216 113.697 20.592 113.192 20.08C112.688 19.568 112.105 19.184 111.443 18.896C110.765 18.624 110.055 18.48 109.298 18.48C108.542 18.48 107.832 18.624 107.17 18.896C106.508 19.168 105.925 19.568 105.42 20.08C104.916 20.592 104.522 21.216 104.238 21.952C103.954 22.688 103.797 23.52 103.797 24.448C103.797 25.328 103.938 26.144 104.238 26.88C104.522 27.616 104.916 28.24 105.42 28.768C105.925 29.28 106.492 29.696 107.17 29.968C107.832 30.256 108.542 30.4 109.298 30.4C110.055 30.4 110.765 30.256 111.443 29.968C112.12 29.68 112.704 29.28 113.192 28.768C113.697 28.256 114.075 27.616 114.375 26.88C114.674 26.144 114.816 25.344 114.816 24.448Z" fill="white"/>
<path d="M122.273 15.0562C122.273 13.8402 122.494 12.7042 122.951 11.6322C123.409 10.5602 124.023 9.63223 124.812 8.83223C125.6 8.03223 126.514 7.40823 127.57 6.94423C128.627 6.48023 129.746 6.24023 130.944 6.24023H144.218V12.1122H130.944C130.534 12.1122 130.172 12.1922 129.809 12.3362C129.462 12.4802 129.147 12.6882 128.895 12.9602C128.643 13.2322 128.422 13.5362 128.28 13.8882C128.138 14.2402 128.059 14.6242 128.059 15.0402C128.059 15.4562 128.138 15.8402 128.28 16.1922C128.422 16.5602 128.627 16.8642 128.895 17.1362C129.163 17.4082 129.462 17.6162 129.809 17.7602C130.156 17.9042 130.534 17.9842 130.944 17.9842H136.73C137.928 17.9842 139.047 18.2082 140.104 18.6722C141.16 19.1362 142.074 19.7602 142.863 20.5602C143.651 21.3602 144.266 22.2882 144.723 23.3602C145.18 24.4322 145.401 25.5682 145.401 26.7842C145.401 28.0002 145.18 29.1362 144.723 30.2082C144.266 31.2802 143.651 32.2082 142.863 33.0082C142.074 33.8082 141.16 34.4322 140.104 34.8962C139.047 35.3602 137.928 35.6002 136.73 35.6002H123.881V29.7282H136.73C137.14 29.7282 137.502 29.6482 137.865 29.5042C138.212 29.3602 138.527 29.1522 138.779 28.8802C139.032 28.6082 139.252 28.3042 139.394 27.9522C139.536 27.6002 139.615 27.2162 139.615 26.8002C139.615 26.3842 139.536 26.0162 139.394 25.6482C139.252 25.2962 139.047 24.9762 138.779 24.7202C138.511 24.4482 138.212 24.2402 137.865 24.0962C137.518 23.9522 137.14 23.8722 136.73 23.8722H130.944C129.746 23.8722 128.627 23.6482 127.57 23.1842C126.514 22.7202 125.6 22.0962 124.812 21.2962C124.023 20.4962 123.409 19.5682 122.951 18.4962C122.51 17.4082 122.273 16.2722 122.273 15.0562Z" fill="white"/>
<path d="M169.537 35.6H168.213L166.069 32.592C165.548 33.072 164.997 33.52 164.397 33.936C163.814 34.352 163.199 34.72 162.553 35.024C161.907 35.328 161.244 35.568 160.567 35.744C159.889 35.92 159.195 36.016 158.501 36.016C156.988 36.016 155.553 35.76 154.213 35.232C152.873 34.72 151.707 33.952 150.698 32.976C149.689 31.984 148.9 30.768 148.333 29.344C147.75 27.904 147.466 26.288 147.466 24.448C147.466 22.736 147.75 21.184 148.333 19.744C148.916 18.32 149.704 17.088 150.698 16.064C151.707 15.04 152.873 14.24 154.213 13.68C155.553 13.12 156.972 12.832 158.501 12.832C159.195 12.832 159.889 12.928 160.582 13.104C161.26 13.28 161.938 13.52 162.584 13.84C163.231 14.16 163.846 14.528 164.429 14.944C165.012 15.36 165.564 15.824 166.069 16.32L168.213 13.728H169.537V35.6ZM163.988 24.448C163.988 23.68 163.846 22.944 163.546 22.224C163.262 21.504 162.868 20.88 162.364 20.32C161.859 19.76 161.292 19.328 160.614 18.992C159.952 18.656 159.242 18.496 158.486 18.496C157.729 18.496 157.019 18.624 156.357 18.88C155.695 19.136 155.112 19.52 154.623 20.032C154.134 20.544 153.74 21.168 153.457 21.904C153.173 22.656 153.031 23.504 153.031 24.448C153.031 25.408 153.173 26.256 153.457 26.992C153.74 27.744 154.119 28.368 154.623 28.864C155.112 29.376 155.695 29.744 156.357 30.016C157.019 30.272 157.729 30.4 158.486 30.4C159.242 30.4 159.952 30.24 160.614 29.904C161.276 29.568 161.859 29.12 162.364 28.576C162.868 28.016 163.247 27.392 163.546 26.672C163.846 25.952 163.988 25.216 163.988 24.448Z" fill="white"/>
<path d="M179.863 35.6002L171.634 13.6802H177.908L182.622 27.3602L187.32 13.6802H193.61L185.381 35.6002H179.863Z" fill="white"/>
<path d="M201.855 35.6002L193.626 13.6802H199.9L204.614 27.3602L209.312 13.6802H215.602L207.373 35.6002H201.855Z" fill="white"/>
<path d="M222.665 43.9522V38.3202L225.723 38.3682C226.259 38.3682 226.78 38.2722 227.284 38.0962C227.789 37.9202 228.246 37.6802 228.671 37.3602C229.097 37.0402 229.475 36.6722 229.791 36.2402C230.106 35.8082 230.374 35.3442 230.579 34.8322C229.98 35.0882 229.365 35.3442 228.734 35.6162C228.104 35.8722 227.473 36.0002 226.843 36.0002C225.518 36.0002 224.257 35.7602 223.091 35.2802C221.924 34.8002 220.899 34.1282 220.016 33.2482C219.134 32.3682 218.44 31.2962 217.935 30.0322C217.431 28.7682 217.179 27.3602 217.179 25.7922V13.6802H222.665V25.7922C222.665 26.5762 222.775 27.2482 222.996 27.8242C223.217 28.4002 223.516 28.8962 223.895 29.2802C224.273 29.6642 224.714 29.9522 225.219 30.1442C225.723 30.3362 226.259 30.4322 226.843 30.4322C227.41 30.4322 227.946 30.3042 228.451 30.0322C228.955 29.7602 229.397 29.4082 229.775 28.9762C230.153 28.5442 230.453 28.0482 230.658 27.4882C230.879 26.9282 230.973 26.3682 230.973 25.7762V13.6802H236.522V32.8482C236.507 34.3842 236.207 35.8402 235.64 37.1842C235.056 38.5282 234.268 39.7122 233.275 40.7202C232.266 41.7282 231.099 42.5282 229.775 43.1202C228.451 43.7122 227.016 44.0002 225.503 44.0002L222.665 43.9522Z" fill="white"/>
<path d="M41.8092 34.3198V31.0078H53.3965C53.964 31.0078 54.5158 30.8958 55.0203 30.6878C55.5248 30.4798 55.9662 30.1758 56.3446 29.7918C56.7229 29.4078 57.0225 28.9598 57.2274 28.4478C57.4481 27.9358 57.5427 27.3758 57.5427 26.7998C57.5427 26.2238 57.4323 25.6638 57.2274 25.1518C57.0225 24.6398 56.7229 24.1918 56.3446 23.8078C55.9662 23.4238 55.5248 23.1198 55.0203 22.9118C54.5158 22.6878 53.964 22.5918 53.3965 22.5918H47.6107C46.586 22.5918 45.6243 22.3998 44.7415 21.9998C43.8429 21.5998 43.0546 21.0558 42.3767 20.3678C41.6988 19.6798 41.1628 18.8798 40.7845 17.9518C40.4061 17.0398 40.2012 16.0638 40.2012 15.0238C40.2012 13.9838 40.3904 13.0078 40.7845 12.1118C41.1786 11.1998 41.7146 10.3998 42.3925 9.71179C43.0704 9.02379 43.8587 8.47979 44.7573 8.07979C45.6401 7.69579 46.6018 7.48779 47.6265 7.48779H59.6394V10.7998H47.6107C47.0432 10.7998 46.4914 10.9118 45.9869 11.1198C45.4825 11.3278 45.041 11.6318 44.6627 12.0158C44.2843 12.3998 43.9848 12.8478 43.7798 13.3598C43.5591 13.8718 43.4645 14.4318 43.4645 15.0078C43.4645 15.5838 43.5749 16.1438 43.7798 16.6558C43.9848 17.1678 44.2843 17.6318 44.6627 18.0158C45.041 18.3998 45.4825 18.7038 45.9869 18.9118C46.4914 19.1358 47.0274 19.2318 47.6107 19.2318H53.3965C54.4212 19.2318 55.3829 19.4238 56.2815 19.8078C57.1801 20.1918 57.9841 20.7358 58.6463 21.4238C59.3084 22.0958 59.8444 22.9118 60.2385 23.8238C60.6169 24.7358 60.8061 25.7118 60.8061 26.7518C60.8061 27.7918 60.6169 28.7678 60.2385 29.6638C59.8602 30.5758 59.3242 31.3758 58.6463 32.0638C57.9684 32.7518 57.1801 33.2958 56.2657 33.6958C55.3671 34.0958 54.4055 34.2878 53.3807 34.2878H41.8092V34.3198Z" fill="white"/>
<path d="M80.2912 34.3198V24.3517H80.3385V23.0718C80.3385 22.3358 80.1966 21.6157 79.9128 20.9437C79.6291 20.2877 79.2507 19.6957 78.762 19.1997C78.2733 18.7037 77.7057 18.3037 77.0594 18.0317C76.3972 17.7437 75.7036 17.5997 74.9626 17.5997C74.2217 17.5997 73.4965 17.7437 72.8343 18.0317C72.1722 18.3197 71.5889 18.7037 71.1002 19.1997C70.6115 19.6957 70.2173 20.2877 69.9493 20.9437C69.6656 21.6157 69.5237 22.3358 69.5237 23.0718V34.3198H66.5283V6.23975H69.5237V17.2157L71.5416 15.6637C72.0776 15.2477 72.6294 14.9597 73.1812 14.7997C73.7645 14.6237 74.3635 14.5437 74.9626 14.5437C76.1135 14.5437 77.217 14.7677 78.2102 15.1997C79.2192 15.6477 80.1178 16.2557 80.8745 17.0237C81.6312 17.7917 82.2303 18.7197 82.6717 19.7597C83.1131 20.7837 83.3338 21.9037 83.3338 23.0718V34.3198H80.2912Z" fill="white"/>
<path d="M89.7502 34.3199V14.9599H92.7771V34.3199H89.7502ZM91.2794 10.1759C90.9326 10.1759 90.633 10.1119 90.3335 9.9839C90.0339 9.8559 89.7659 9.6799 89.561 9.4559C89.3403 9.2319 89.1669 8.9759 89.0407 8.6719C88.9146 8.3839 88.8516 8.0799 88.8516 7.7279C88.8516 7.3919 88.9146 7.0879 89.0407 6.7999C89.1669 6.4959 89.3403 6.2239 89.561 6.0159C89.7817 5.7919 90.0339 5.6159 90.3335 5.4879C90.633 5.3599 90.9326 5.2959 91.2794 5.2959C91.6262 5.2959 91.9258 5.3599 92.2253 5.4879C92.5406 5.6159 92.7928 5.8079 93.0293 6.0319C93.25 6.2559 93.4234 6.5119 93.5496 6.8159C93.6757 7.1199 93.7387 7.4239 93.7387 7.7439C93.7387 8.0799 93.6757 8.3999 93.5496 8.6879C93.4234 8.9919 93.25 9.2479 93.0293 9.4719C92.8086 9.6959 92.5406 9.8719 92.2253 10.0159C91.9258 10.1119 91.6105 10.1759 91.2794 10.1759Z" fill="white"/>
<path d="M99.4932 42.6718V15.5838L101.653 18.1918L102.615 17.2638C103.072 16.8318 103.561 16.4158 104.112 16.0318C104.648 15.6478 105.2 15.3278 105.768 15.0398C106.335 14.7678 106.918 14.5598 107.533 14.3998C108.117 14.2558 108.716 14.1758 109.299 14.1758C110.655 14.1758 111.932 14.4158 113.114 14.9118C114.297 15.3918 115.337 16.0958 116.204 16.9758C117.087 17.8558 117.781 18.9438 118.301 20.2078C118.821 21.4718 119.073 22.8958 119.073 24.4638C119.073 26.0958 118.805 27.5678 118.301 28.8478C117.796 30.1118 117.087 31.2158 116.22 32.0798C115.353 32.9598 114.312 33.6318 113.13 34.0958C111.948 34.5598 110.655 34.7998 109.299 34.7998C108.905 34.7998 108.511 34.7518 108.132 34.6718C107.723 34.5758 107.297 34.4478 106.903 34.2878C106.477 34.1118 106.051 33.9198 105.642 33.7118C105.216 33.4878 104.79 33.2638 104.396 33.0238L102.504 31.9038V42.6718H99.4932ZM109.299 17.2158C108.385 17.2158 107.518 17.3918 106.698 17.7118C105.878 18.0478 105.137 18.5438 104.522 19.1838C103.907 19.8078 103.419 20.5918 103.072 21.4878C102.725 22.3678 102.552 23.3758 102.552 24.4638C102.552 25.5038 102.725 26.4958 103.072 27.3758C103.419 28.2718 103.907 29.0398 104.522 29.6798C105.137 30.3198 105.862 30.8158 106.682 31.1678C107.502 31.5198 108.385 31.6958 109.299 31.6958C110.213 31.6958 111.096 31.5198 111.932 31.1678C112.752 30.8158 113.493 30.3198 114.107 29.6798C114.722 29.0398 115.211 28.2718 115.558 27.3758C115.905 26.4958 116.078 25.5038 116.078 24.4638C116.078 23.3758 115.905 22.3838 115.558 21.4878C115.211 20.5918 114.722 19.8238 114.107 19.1838C113.493 18.5438 112.752 18.0478 111.916 17.7118C111.096 17.3758 110.213 17.2158 109.299 17.2158Z" fill="white"/>
<path d="M125.159 34.3198V31.0078H136.746C137.314 31.0078 137.865 30.8958 138.37 30.6878C138.874 30.4798 139.316 30.1758 139.694 29.7918C140.073 29.4078 140.372 28.9598 140.577 28.4478C140.798 27.9358 140.892 27.3758 140.892 26.7998C140.892 26.2238 140.782 25.6638 140.577 25.1518C140.372 24.6398 140.073 24.1918 139.694 23.8078C139.316 23.4238 138.874 23.1198 138.37 22.9118C137.865 22.6878 137.314 22.5918 136.746 22.5918H130.96C129.936 22.5918 128.974 22.3998 128.091 21.9998C127.193 21.5998 126.404 21.0558 125.726 20.3678C125.048 19.6798 124.512 18.8798 124.134 17.9518C123.74 17.0398 123.551 16.0638 123.551 15.0238C123.551 13.9838 123.74 13.0078 124.134 12.1118C124.528 11.1998 125.064 10.3998 125.742 9.71179C126.42 9.02379 127.208 8.47979 128.107 8.07979C128.99 7.69579 129.951 7.48779 130.976 7.48779H142.989V10.7998H130.976C130.409 10.7998 129.857 10.9118 129.352 11.1198C128.848 11.3278 128.406 11.6318 128.028 12.0158C127.65 12.3998 127.35 12.8478 127.145 13.3598C126.925 13.8718 126.83 14.4318 126.83 15.0078C126.83 15.5838 126.94 16.1438 127.145 16.6558C127.35 17.1678 127.65 17.6318 128.028 18.0158C128.406 18.3998 128.848 18.7038 129.352 18.9118C129.857 19.1358 130.393 19.2318 130.976 19.2318H136.762C137.787 19.2318 138.748 19.4238 139.647 19.8078C140.546 20.1918 141.35 20.7358 142.012 21.4238C142.674 22.0958 143.21 22.9118 143.604 23.8238C143.982 24.7358 144.171 25.7118 144.171 26.7518C144.171 27.7918 143.982 28.7678 143.604 29.6638C143.226 30.5758 142.69 31.3758 142.012 32.0638C141.334 32.7518 140.546 33.2958 139.647 33.6958C138.748 34.0958 137.787 34.2878 136.762 34.2878H125.159V34.3198Z" fill="white"/>
<path d="M158.502 34.7359C157.146 34.7359 155.853 34.4959 154.671 34.0479C153.504 33.5999 152.464 32.9279 151.597 32.0639C150.73 31.1999 150.02 30.1279 149.516 28.8639C148.995 27.5999 148.743 26.1119 148.743 24.4639C148.743 22.9279 148.995 21.5199 149.516 20.2559C150.02 18.9919 150.73 17.8879 151.612 16.9919C152.495 16.0959 153.536 15.3919 154.718 14.8799C155.9 14.3839 157.177 14.1279 158.517 14.1279C159.101 14.1279 159.7 14.2079 160.283 14.3519C160.882 14.5119 161.481 14.7199 162.049 15.0079C162.632 15.2959 163.184 15.6159 163.704 15.9999C164.24 16.3839 164.745 16.8159 165.218 17.2639L166.195 18.2079L168.292 15.6479V33.5359L166.29 30.7199L165.249 31.6639C164.76 32.1119 164.24 32.5279 163.704 32.9119C163.184 33.2799 162.632 33.6159 162.049 33.8879C161.481 34.1599 160.882 34.3839 160.283 34.5279C159.684 34.6559 159.085 34.7359 158.502 34.7359ZM158.502 17.2159C157.603 17.2159 156.736 17.3759 155.916 17.6959C155.081 18.0159 154.356 18.5119 153.741 19.1359C153.126 19.7599 152.653 20.5439 152.306 21.4559C151.975 22.3519 151.802 23.3599 151.802 24.4639C151.802 25.5679 151.975 26.5919 152.306 27.4719C152.653 28.3839 153.142 29.1519 153.741 29.7919C154.356 30.4319 155.096 30.9119 155.916 31.2319C156.72 31.5519 157.587 31.7119 158.502 31.7119C159.448 31.7119 160.346 31.5039 161.182 31.0719C161.986 30.6719 162.695 30.1279 163.294 29.4559C163.893 28.7999 164.366 28.0319 164.713 27.1679C165.06 26.3039 165.233 25.3919 165.233 24.4639C165.233 23.5359 165.06 22.6239 164.713 21.7599C164.366 20.9119 163.893 20.1439 163.294 19.4719C162.695 18.7999 161.986 18.2559 161.182 17.8559C160.346 17.4239 159.448 17.2159 158.502 17.2159Z" fill="white"/>
<path d="M180.731 34.32L173.463 14.96H177.01L182.622 31.232L188.219 14.96H191.798L184.514 34.32H180.731Z" fill="white"/>
<path d="M202.723 34.32L195.455 14.96H199.002L204.615 31.232L210.211 14.96H213.774L206.506 34.32H202.723Z" fill="white"/>
<path d="M223.927 42.704V39.632L225.724 39.664C226.402 39.664 227.064 39.552 227.695 39.328C228.309 39.104 228.877 38.8 229.397 38.416C229.917 38.032 230.375 37.568 230.769 37.04C231.163 36.528 231.478 35.952 231.715 35.344L232.866 32.48L230.059 33.68C229.46 33.936 228.845 34.192 228.231 34.448C227.758 34.64 227.285 34.736 226.828 34.736C225.661 34.736 224.557 34.528 223.548 34.112C222.539 33.696 221.641 33.104 220.884 32.352C220.127 31.6 219.528 30.656 219.087 29.568C218.646 28.464 218.425 27.2 218.425 25.808V14.96H221.389V25.792C221.389 26.72 221.531 27.568 221.814 28.288C222.098 29.024 222.492 29.664 222.981 30.176C223.485 30.704 224.084 31.088 224.762 31.344C225.409 31.584 226.102 31.712 226.828 31.712C227.6 31.712 228.325 31.536 229.019 31.168C229.665 30.832 230.233 30.384 230.706 29.824C231.179 29.28 231.557 28.656 231.809 27.968C232.077 27.264 232.219 26.528 232.219 25.792V14.96H235.246V32.848C235.23 34.192 234.978 35.488 234.458 36.672C233.953 37.872 233.244 38.928 232.361 39.808C231.478 40.704 230.422 41.424 229.255 41.936C228.089 42.448 226.828 42.704 225.488 42.704H223.927Z" fill="white"/>
</svg>
